<?xml version="1.0" standalone="no"?>
<!DOCTYPE svg PUBLIC "-//W3C//DTD SVG 20010904//EN"
 "http://www.w3.org/TR/2001/REC-SVG-20010904/DTD/svg10.dtd">
<svg version="1.0" xmlns="http://www.w3.org/2000/svg"
 width="240.000000pt" height="240.000000pt" viewBox="0 0 240.000000 240.000000"
 preserveAspectRatio="xMidYMid meet">
<metadata>
Created by potrace 1.14, written by Peter Selinger 2001-2017
</metadata>
<g transform="translate(0.000000,240.000000) scale(0.100000,-0.100000)"
fill="#000000" stroke="none">
<path d="M117 2178 c-2 -7 0 -20 4 -30 6 -11 4 -18 -9 -23 -16 -6 -16 -7 1
-16 12 -7 16 -17 12 -30 -4 -13 -2 -19 9 -19 20 0 20 -10 1 -24 -19 -14 -9
-56 14 -56 37 0 88 -21 88 -35 0 -9 -6 -14 -14 -11 -7 3 -13 1 -13 -5 0 -5 -6
-9 -12 -8 -7 1 -22 1 -33 0 -18 -1 -18 -2 -2 -18 12 -13 20 -14 28 -6 12 12
59 -2 59 -18 0 -9 -26 -19 -51 -19 -10 0 -19 -4 -19 -10 0 -8 22 -52 47 -94 3
-4 7 -25 9 -45 17 -214 25 -267 49 -346 39 -132 63 -179 119 -239 65 -70 117
-86 271 -87 88 0 122 4 164 20 69 26 120 62 161 112 39 49 53 93 70 217 l13
93 36 -3 35 -3 12 -80 c10 -74 34 -178 48 -215 8 -19 -70 -45 -111 -37 -30 6
-93 -18 -93 -35 0 -6 -10 -26 -22 -44 -18 -26 -28 -32 -46 -27 -14 3 -30 -1
-42 -12 -17 -15 -24 -16 -46 -7 -31 15 -34 15 -34 2 0 -11 9 -21 97 -102 59
-55 72 -50 81 28 5 50 22 42 22 -11 -1 -29 -22 -70 -32 -60 -11 11 -32 -28
-33 -60 -2 -37 -20 -65 -41 -65 -7 0 -23 -13 -35 -29 -12 -16 -30 -31 -39 -34
-16 -4 -17 -10 -10 -40 7 -33 4 -40 -26 -71 -19 -19 -34 -39 -34 -45 0 -16
-22 -24 -30 -11 -15 24 -48 1 -52 -36 -3 -30 0 -37 26 -54 17 -11 56 -40 86
-65 30 -25 79 -57 108 -72 28 -14 52 -32 52 -39 0 -7 14 -26 32 -43 l32 -30
431 -1 430 0 23 62 c69 189 95 266 98 293 2 17 15 73 29 125 13 52 29 142 34
200 7 89 13 112 35 144 43 64 51 106 38 194 -7 42 -12 93 -12 112 0 20 -4 40
-8 45 -13 15 -39 95 -46 139 -6 42 1 59 120 297 30 58 50 109 47 113 -4 3 3
15 15 26 12 12 22 30 22 41 0 11 8 31 17 45 12 19 14 30 6 42 -7 12 -6 20 3
27 8 6 11 19 7 33 -4 18 -11 22 -27 18 -11 -3 -28 -6 -37 -6 -9 0 -16 -7 -15
-16 0 -11 -12 -22 -34 -30 l-35 -12 40 -1 40 -1 -60 -31 c-45 -23 -76 -32
-121 -33 -37 -2 -70 -9 -85 -19 -13 -10 -32 -17 -43 -17 -22 0 -71 -15 -129
-38 -25 -10 -41 -12 -45 -6 -4 6 -32 11 -62 11 -46 1 -60 -4 -85 -26 -16 -14
-24 -19 -17 -11 16 18 16 38 0 22 -16 -16 -28 -15 -28 2 0 20 -38 30 -55 16
-8 -7 -15 -23 -15 -35 0 -26 -66 -105 -87 -105 -7 0 -13 -7 -13 -15 0 -8 -6
-15 -14 -15 -7 0 -21 -11 -29 -24 -13 -19 -28 -25 -79 -31 -76 -8 -106 -25
-110 -62 -2 -22 -9 -29 -29 -31 -23 -3 -26 0 -22 21 3 16 -2 31 -17 44 -23 23
-75 26 -514 39 -178 6 -216 9 -202 19 15 12 15 13 0 19 -13 5 -3 13 37 33 30
15 56 29 59 32 8 9 42 30 67 40 11 6 24 14 27 20 7 10 -66 67 -144 113 -25 15
-67 45 -95 67 -112 89 -208 137 -218 109z m1970 -224 c-3 -3 -12 -4 -19 -1 -8
3 -5 6 6 6 11 1 17 -2 13 -5z m-417 -89 c-8 -9 -9 -15 -2 -15 6 0 14 4 17 10
3 5 17 9 30 8 l24 -2 -21 -23 c-14 -15 -17 -23 -8 -23 10 0 9 -4 -3 -17 -8
-10 -16 -22 -16 -28 0 -5 -4 -11 -10 -13 -6 -2 -9 3 -6 10 5 11 -1 14 -25 10
l-31 -4 16 38 c9 22 19 45 22 52 3 6 10 12 15 12 6 0 5 -6 -2 -15z m-1232
-213 c8 -6 -3 -22 -39 -55 -37 -34 -47 -48 -36 -53 9 -3 15 -20 15 -46 1 -72
85 -132 202 -145 47 -4 74 -1 132 18 40 12 79 30 85 38 8 11 11 40 9 86 -5 80
-17 118 -43 135 -14 8 19 9 132 4 83 -3 152 -8 154 -10 2 -2 -1 -21 -7 -41 -6
-21 -20 -96 -32 -166 -23 -143 -32 -166 -87 -219 -68 -66 -121 -83 -253 -82
-63 0 -132 6 -152 13 -41 14 -111 84 -132 133 -38 87 -76 243 -76 314 l0 73
48 4 c26 2 52 4 57 5 6 1 16 -2 23 -6z m832 -37 c-20 -24 7 -145 32 -145 5 0
6 6 2 13 -4 7 -3 8 2 4 5 -5 9 -18 9 -30 0 -15 11 -27 34 -38 37 -17 49 -37
50 -80 1 -41 29 -59 83 -53 26 2 50 0 53 -6 3 -5 11 -10 16 -10 6 0 7 5 3 12
-5 7 -2 9 7 6 8 -3 33 -14 57 -23 33 -13 45 -15 56 -6 8 7 54 15 103 18 48 3
95 9 104 14 33 17 4 -67 -42 -122 -62 -75 -128 -103 -239 -104 -47 0 -98 4
-115 8 -26 8 -28 10 -12 19 18 9 18 11 -3 25 -13 9 -19 21 -15 33 3 10 -1 25
-10 34 -9 9 -12 16 -6 16 18 0 12 24 -9 38 -11 7 -20 19 -20 27 0 8 -4 15 -10
15 -5 0 -10 -6 -10 -14 0 -20 -38 -26 -86 -13 l-44 11 -16 72 c-16 76 -24 247
-12 277 4 9 17 17 29 17 18 0 19 -2 9 -15z m-795 -84 c-18 -36 -40 -42 -29 -8
8 28 37 62 42 48 2 -5 -4 -23 -13 -40z m1520 -281 c-3 -5 7 -16 22 -24 20 -11
23 -15 11 -16 -20 0 -24 -15 -8 -25 6 -4 8 -10 5 -15 -3 -5 3 -13 12 -19 16
-9 15 -10 -6 -11 -13 0 -30 -8 -37 -17 -10 -15 -10 -21 3 -35 20 -22 15 -22
-30 -3 -46 19 -56 19 -31 0 13 -10 14 -14 5 -15 -10 0 -11 -3 -3 -13 9 -11 1
-13 -38 -12 -27 1 -51 3 -54 6 -2 2 18 31 45 64 28 34 55 79 62 103 8 30 16
42 30 42 10 0 16 -4 12 -10z m-695 -16 c0 -8 -19 -13 -24 -6 -3 5 1 9 9 9 8 0
15 -2 15 -3z m480 -234 c-8 -6 -25 -10 -37 -10 -12 0 -23 -5 -25 -12 -3 -7 -9
-8 -18 -3 -10 6 0 13 36 25 49 17 71 17 44 0z m-126 -35 c-4 -8 -10 -13 -14
-10 -5 3 -13 -2 -18 -11 -8 -14 -14 -13 -58 10 l-49 26 72 0 c60 0 71 -3 67
-15z m-31 -90 c29 -40 0 -29 -51 21 l-47 45 40 -20 c22 -11 48 -32 58 -46z
m-18 -48 c11 -9 14 -16 7 -21 -13 -8 -62 10 -62 24 0 14 33 12 55 -3z m-509
-268 c21 -24 145 -89 169 -89 43 0 16 -77 -38 -110 -42 -26 -107 -26 -140 0
-22 18 -26 18 -38 4 -10 -13 -27 -15 -77 -12 -58 4 -68 8 -93 36 -16 18 -29
43 -29 55 0 19 9 26 53 40 28 9 75 34 102 56 59 46 66 48 91 20z"/>
<path d="M580 1915 c7 -8 16 -15 21 -15 5 0 9 7 9 15 0 9 -9 15 -21 15 -18 0
-19 -2 -9 -15z"/>
</g>
</svg>
